<svg width="100%" viewBox="0 0 640 160" role="img" xmlns="http://www.w3.org/2000/svg" style="margin:1rem 0">
  <title>LM head: final MatMul → logits</title>
  <defs>
    <marker id="lm-purple" viewBox="0 0 10 10" refX="8" refY="5" markerWidth="6" markerHeight="6" orient="auto-start-reverse">
      <path d="M2 1L8 5L2 9" fill="none" stroke="#534AB7" stroke-width="1.5" stroke-linecap="round" stroke-linejoin="round"/>
    </marker>
    <marker id="lm-blue" viewBox="0 0 10 10" refX="8" refY="5" markerWidth="6" markerHeight="6" orient="auto-start-reverse">
      <path d="M2 1L8 5L2 9" fill="none" stroke="#185FA5" stroke-width="1.5" stroke-linecap="round" stroke-linejoin="round"/>
    </marker>
    <marker id="lm-teal" viewBox="0 0 10 10" refX="8" refY="5" markerWidth="6" markerHeight="6" orient="auto-start-reverse">
      <path d="M2 1L8 5L2 9" fill="none" stroke="#16847A" stroke-width="1.5" stroke-linecap="round" stroke-linejoin="round"/>
    </marker>
  </defs>
  <rect x="6" y="70" width="100" height="42" rx="8" fill="#EEEDFE" stroke="#534AB7" stroke-width="0.8"/>
  <text x="56" y="88" text-anchor="middle" style="font-size:10px;font-weight:600;fill:#26215C">[1, seq, 768]</text>
  <text x="56" y="102" text-anchor="middle" style="font-size:9px;fill:#534AB7">normalised h</text>
  <line x1="106" y1="91" x2="188" y2="91" stroke="#534AB7" stroke-width="1.3" marker-end="url(#lm-purple)"/>
  <rect x="190" y="8" width="100" height="46" rx="8" fill="#E6F1FB" stroke="#185FA5" stroke-width="0.8"/>
  <text x="240" y="27" text-anchor="middle" style="font-size:12px;font-weight:600;fill:#0C447C">wteᵀ</text>
  <text x="240" y="41" text-anchor="middle" style="font-size:9.5px;fill:#185FA5">[768 × 30522]</text>
  <line x1="240" y1="54" x2="240" y2="72" stroke="#185FA5" stroke-width="1.3" marker-end="url(#lm-blue)"/>
  <rect x="190" y="74" width="100" height="36" rx="8" fill="#185FA5" stroke="#0C447C" stroke-width="0.5"/>
  <text x="240" y="97" text-anchor="middle" style="font-size:13px;font-weight:500;fill:#fff">MatMul</text>
  <line x1="290" y1="92" x2="336" y2="92" stroke="#185FA5" stroke-width="1.5" marker-end="url(#lm-blue)"/>
  <rect x="338" y="56" width="290" height="72" rx="10" fill="#E6F1FB" stroke="#185FA5" stroke-width="1"/>
  <text x="483" y="83" text-anchor="middle" style="font-size:15px;font-weight:600;fill:#0C447C">logits</text>
  <text x="483" y="101" text-anchor="middle" style="font-size:10.5px;fill:#185FA5">float32 [1, seq_len, 30522]</text>
  <text x="483" y="117" text-anchor="middle" style="font-size:9.5px;fill:#185FA5">one score per vocab token per position</text>
</svg>
