<svg width="100%" viewBox="0 0 640 125" role="img" xmlns="http://www.w3.org/2000/svg" style="margin:1rem 0">
  <title>6 transformer blocks</title>
  <defs><marker id="a10" viewBox="0 0 10 10" refX="8" refY="5" markerWidth="6" markerHeight="6" orient="auto-start-reverse"><path d="M2 1L8 5L2 9" fill="none" stroke="#888" stroke-width="1.5" stroke-linecap="round" stroke-linejoin="round"/></marker></defs>
  <rect x="40" y="30" width="82" height="60" rx="8" fill="#E6F1FB" stroke="#185FA5" stroke-width="0.5"/>
  <text x="81" y="56" text-anchor="middle" style="font-size:11px;font-weight:500;fill:#185FA5">Block 1</text>
  <text x="81" y="72" text-anchor="middle" style="font-size:9px;fill:#185FA5">Attn+LN</text>
  <text x="81" y="83" text-anchor="middle" style="font-size:9px;fill:#185FA5">MLP+LN</text>
  <line x1="124" y1="60" x2="132" y2="60" stroke="#185FA5" stroke-width="1.2" marker-end="url(#a10)"/>
  <rect x="134" y="30" width="82" height="60" rx="8" fill="#E1F5EE" stroke="#1D9E75" stroke-width="0.5"/>
  <text x="175" y="56" text-anchor="middle" style="font-size:11px;font-weight:500;fill:#1D9E75">Block 2</text>
  <text x="175" y="72" text-anchor="middle" style="font-size:9px;fill:#1D9E75">Attn+LN</text>
  <text x="175" y="83" text-anchor="middle" style="font-size:9px;fill:#1D9E75">MLP+LN</text>
  <line x1="218" y1="60" x2="226" y2="60" stroke="#1D9E75" stroke-width="1.2" marker-end="url(#a10)"/>
  <rect x="228" y="30" width="82" height="60" rx="8" fill="#FAEEDA" stroke="#BA7517" stroke-width="0.5"/>
  <text x="269" y="56" text-anchor="middle" style="font-size:11px;font-weight:500;fill:#BA7517">Block 3</text>
  <text x="269" y="72" text-anchor="middle" style="font-size:9px;fill:#BA7517">Attn+LN</text>
  <text x="269" y="83" text-anchor="middle" style="font-size:9px;fill:#BA7517">MLP+LN</text>
  <line x1="312" y1="60" x2="320" y2="60" stroke="#BA7517" stroke-width="1.2" marker-end="url(#a10)"/>
  <rect x="322" y="30" width="82" height="60" rx="8" fill="#FAECE7" stroke="#D85A30" stroke-width="0.5"/>
  <text x="363" y="56" text-anchor="middle" style="font-size:11px;font-weight:500;fill:#D85A30">Block 4</text>
  <text x="363" y="72" text-anchor="middle" style="font-size:9px;fill:#D85A30">Attn+LN</text>
  <text x="363" y="83" text-anchor="middle" style="font-size:9px;fill:#D85A30">MLP+LN</text>
  <line x1="406" y1="60" x2="414" y2="60" stroke="#D85A30" stroke-width="1.2" marker-end="url(#a10)"/>
  <rect x="416" y="30" width="82" height="60" rx="8" fill="#EEEDFE" stroke="#534AB7" stroke-width="0.5"/>
  <text x="457" y="56" text-anchor="middle" style="font-size:11px;font-weight:500;fill:#534AB7">Block 5</text>
  <text x="457" y="72" text-anchor="middle" style="font-size:9px;fill:#534AB7">Attn+LN</text>
  <text x="457" y="83" text-anchor="middle" style="font-size:9px;fill:#534AB7">MLP+LN</text>
  <line x1="500" y1="60" x2="508" y2="60" stroke="#534AB7" stroke-width="1.2" marker-end="url(#a10)"/>
  <rect x="510" y="30" width="82" height="60" rx="8" fill="#FBEAF0" stroke="#D4537E" stroke-width="0.5"/>
  <text x="551" y="56" text-anchor="middle" style="font-size:11px;font-weight:500;fill:#D4537E">Block 6</text>
  <text x="551" y="72" text-anchor="middle" style="font-size:9px;fill:#D4537E">Attn+LN</text>
  <text x="551" y="83" text-anchor="middle" style="font-size:9px;fill:#D4537E">MLP+LN</text>
  <text x="320" y="108" text-anchor="middle" style="font-size:10px;fill:#888">all shapes [1, seq_len, 768], same structure, different learned weights</text>
</svg>
