<svg width="100%" viewBox="0 0 640 165" role="img" xmlns="http://www.w3.org/2000/svg" style="margin:1rem 0">
  <title>Scaled dot-product attention + causal mask</title>
  <defs>
    <marker id="a7" viewBox="0 0 10 10" refX="8" refY="5" markerWidth="6" markerHeight="6" orient="auto-start-reverse"><path d="M2 1L8 5L2 9" fill="none" stroke="#185FA5" stroke-width="1.5" stroke-linecap="round" stroke-linejoin="round"/></marker>
    <marker id="a7b" viewBox="0 0 10 10" refX="8" refY="5" markerWidth="6" markerHeight="6" orient="auto-start-reverse"><path d="M2 1L8 5L2 9" fill="none" stroke="#5F5E5A" stroke-width="1.5" stroke-linecap="round" stroke-linejoin="round"/></marker>
    <marker id="a7r" viewBox="0 0 10 10" refX="8" refY="5" markerWidth="6" markerHeight="6" orient="auto-start-reverse"><path d="M2 1L8 5L2 9" fill="none" stroke="#D85A30" stroke-width="1.5" stroke-linecap="round" stroke-linejoin="round"/></marker>
    <marker id="a7p" viewBox="0 0 10 10" refX="8" refY="5" markerWidth="6" markerHeight="6" orient="auto-start-reverse"><path d="M2 1L8 5L2 9" fill="none" stroke="#D4537E" stroke-width="1.5" stroke-linecap="round" stroke-linejoin="round"/></marker>
  </defs>
  <rect x="20" y="58" width="80" height="44" rx="8" fill="#E6F1FB" stroke="#185FA5" stroke-width="0.5"/>
  <text x="60" y="84" text-anchor="middle" style="font-size:12px;font-weight:500;fill:#0C447C">Q·Kᵀ</text>
  <line x1="102" y1="80" x2="128" y2="80" stroke="#185FA5" stroke-width="1.2" marker-end="url(#a7)"/>
  <rect x="130" y="58" width="80" height="44" rx="8" fill="#F1EFE8" stroke="#5F5E5A" stroke-width="0.5"/>
  <text x="170" y="84" text-anchor="middle" style="font-size:12px;font-weight:500;fill:#2C2C2A">÷ √64</text>
  <line x1="212" y1="80" x2="238" y2="80" stroke="#5F5E5A" stroke-width="1.2" marker-end="url(#a7b)"/>
  <rect x="240" y="58" width="80" height="44" rx="8" fill="#FAECE7" stroke="#D85A30" stroke-width="0.5"/>
  <text x="280" y="84" text-anchor="middle" style="font-size:12px;font-weight:500;fill:#4A1B0C">+ mask</text>
  <line x1="322" y1="80" x2="348" y2="80" stroke="#D85A30" stroke-width="1.2" marker-end="url(#a7r)"/>
  <rect x="350" y="58" width="80" height="44" rx="8" fill="#FBEAF0" stroke="#D4537E" stroke-width="0.5"/>
  <text x="390" y="84" text-anchor="middle" style="font-size:12px;font-weight:500;fill:#4B1528">Softmax</text>
  <line x1="432" y1="80" x2="458" y2="80" stroke="#D4537E" stroke-width="1.2" marker-end="url(#a7p)"/>
  <rect x="460" y="58" width="80" height="44" rx="8" fill="#E6F1FB" stroke="#185FA5" stroke-width="0.5"/>
  <text x="500" y="84" text-anchor="middle" style="font-size:12px;font-weight:500;fill:#0C447C">· V</text>
  <g transform="translate(260, 110)">
    <rect x="0" y="0" width="12" height="12" rx="2" fill="#5DCAA5" opacity="0.8"/>
    <rect x="14" y="0" width="12" height="12" rx="2" fill="#5DCAA5" opacity="0.8"/>
    <rect x="28" y="0" width="12" height="12" rx="2" fill="#E24B4A" opacity="0.8"/>
    <rect x="0" y="14" width="12" height="12" rx="2" fill="#5DCAA5" opacity="0.8"/>
    <rect x="14" y="14" width="12" height="12" rx="2" fill="#5DCAA5" opacity="0.8"/>
    <rect x="28" y="14" width="12" height="12" rx="2" fill="#E24B4A" opacity="0.8"/>
    <rect x="0" y="28" width="12" height="12" rx="2" fill="#E24B4A" opacity="0.8"/>
    <rect x="14" y="28" width="12" height="12" rx="2" fill="#E24B4A" opacity="0.8"/>
    <rect x="28" y="28" width="12" height="12" rx="2" fill="#E24B4A" opacity="0.8"/>
  </g>
  <text x="60" y="46" text-anchor="middle" style="font-size:10px;fill:#888">[seq×seq]</text>
  <text x="500" y="46" text-anchor="middle" style="font-size:10px;fill:#888">[12, seq, 64]</text>
</svg>
