<svg width="100%" viewBox="0 0 640 165" role="img" xmlns="http://www.w3.org/2000/svg" style="margin:1rem 0">
  <title>Token embedding lookup</title>
  <defs><marker id="amb" viewBox="0 0 10 10" refX="8" refY="5" markerWidth="6" markerHeight="6" orient="auto-start-reverse"><path d="M2 1L8 5L2 9" fill="none" stroke="#185FA5" stroke-width="1.5" stroke-linecap="round" stroke-linejoin="round"/></marker></defs>
  <defs><marker id="amg" viewBox="0 0 10 10" refX="8" refY="5" markerWidth="6" markerHeight="6" orient="auto-start-reverse"><path d="M2 1L8 5L2 9" fill="none" stroke="#1D9E75" stroke-width="1.5" stroke-linecap="round" stroke-linejoin="round"/></marker></defs>
  <rect x="20" y="20" width="120" height="120" rx="8" fill="#E6F1FB" stroke="#185FA5" stroke-width="0.5"/>
  <text x="80" y="55" text-anchor="middle" style="font-size:12px;font-weight:500;fill:#0C447C">wte</text>
  <text x="80" y="72" text-anchor="middle" style="font-size:10px;fill:#185FA5">50257 × 768</text>
  <rect x="30" y="88" width="100" height="7" rx="2" fill="#B5D4F4" opacity="0.4"/>
  <rect x="30" y="97" width="100" height="7" rx="2" fill="#B5D4F4" opacity="0.5"/>
  <rect x="30" y="106" width="100" height="7" rx="2" fill="#B5D4F4" opacity="0.6"/>
  <rect x="30" y="115" width="100" height="7" rx="2" fill="#B5D4F4" opacity="0.7"/>
  <rect x="30" y="124" width="100" height="7" rx="2" fill="#B5D4F4" opacity="0.8"/>
  <text x="80" y="150" text-anchor="middle" style="font-size:10px;fill:#185FA5">one row per vocab token</text>
  <line x1="152" y1="80" x2="210" y2="80" stroke="#185FA5" stroke-width="1.5" marker-end="url(#amb)"/>
  <rect x="212" y="58" width="70" height="44" rx="8" fill="#1D9E75" stroke="#0F6E56" stroke-width="0.5"/>
  <text x="247" y="84" text-anchor="middle" style="font-size:12px;font-weight:500;fill:#fff">Gather</text>
  <rect x="217" y="15" width="60" height="20" rx="4" fill="#E1F5EE" stroke="#0F6E56" stroke-width="0.5"/>
  <text x="247" y="29" text-anchor="middle" style="font-size:10px;fill:#0F6E56">input_ids</text>
  <line x1="247" y1="35" x2="247" y2="58" stroke="#0F6E56" stroke-width="1" marker-end="url(#amg)"/>
  <line x1="284" y1="80" x2="340" y2="80" stroke="#1D9E75" stroke-width="1.5" marker-end="url(#amg)"/>
  <rect x="342" y="30" width="260" height="100" rx="8" fill="#E1F5EE" stroke="#1D9E75" stroke-width="0.5"/>
  <text x="472" y="55" text-anchor="middle" style="font-size:11px;font-weight:500;fill:#0F6E56">token embeddings</text>
  <text x="472" y="70" text-anchor="middle" style="font-size:10px;fill:#0F6E56">float32 [1, seq_len, 768]</text>
  <rect x="352" y="82" width="240" height="6" rx="2" fill="#5DCAA5" opacity="0.5"/>
  <rect x="352" y="90" width="240" height="6" rx="2" fill="#5DCAA5" opacity="0.58"/>
  <rect x="352" y="98" width="240" height="6" rx="2" fill="#5DCAA5" opacity="0.66"/>
  <rect x="352" y="106" width="240" height="6" rx="2" fill="#5DCAA5" opacity="0.74"/>
  <rect x="352" y="114" width="240" height="6" rx="2" fill="#5DCAA5" opacity="0.82"/>
  <text x="472" y="140" text-anchor="middle" style="font-size:10px;fill:#0F6E56">each token → 768-dim float vector</text>
</svg>
