<svg width="100%" viewBox="0 0 700 175" role="img" xmlns="http://www.w3.org/2000/svg" style="margin:1rem 0">
  <title>Layer Norm 2 + MLP sublayer</title>
  <defs>
    <marker id="m-blue" viewBox="0 0 10 10" refX="8" refY="5" markerWidth="6" markerHeight="6" orient="auto-start-reverse">
      <path d="M2 1L8 5L2 9" fill="none" stroke="#185FA5" stroke-width="1.5" stroke-linecap="round" stroke-linejoin="round"/>
    </marker>
    <marker id="m-green" viewBox="0 0 10 10" refX="8" refY="5" markerWidth="6" markerHeight="6" orient="auto-start-reverse">
      <path d="M2 1L8 5L2 9" fill="none" stroke="#639922" stroke-width="1.5" stroke-linecap="round" stroke-linejoin="round"/>
    </marker>
    <marker id="m-red" viewBox="0 0 10 10" refX="8" refY="5" markerWidth="6" markerHeight="6" orient="auto-start-reverse">
      <path d="M2 1L8 5L2 9" fill="none" stroke="#D85A30" stroke-width="1.5" stroke-linecap="round" stroke-linejoin="round"/>
    </marker>
  </defs>
  <rect x="6" y="50" width="54" height="38" rx="7" fill="#FAECE7" stroke="#D85A30" stroke-width="1"/>
  <text x="33" y="66" text-anchor="middle" style="font-size:11px;font-weight:700;font-style:italic;fill:#993C1D">h</text>
  <text x="33" y="80" text-anchor="middle" style="font-size:8px;fill:#993C1D">[1,s,768]</text>
  <circle cx="33" cy="88" r="3.5" fill="#D85A30"/>
  <line x1="60" y1="69" x2="74" y2="69" stroke="#185FA5" stroke-width="1.2" marker-end="url(#m-blue)"/>
  <rect x="76" y="50" width="88" height="38" rx="8" fill="#E6F1FB" stroke="#185FA5" stroke-width="0.5"/>
  <text x="120" y="67" text-anchor="middle" style="font-size:10px;font-weight:600;fill:#0C447C">Linear</text>
  <text x="120" y="81" text-anchor="middle" style="font-size:9px;fill:#185FA5">768 → 3072</text>
  <line x1="164" y1="69" x2="178" y2="69" stroke="#639922" stroke-width="1.2" marker-end="url(#m-green)"/>
  <rect x="180" y="50" width="64" height="38" rx="8" fill="#EAF3DE" stroke="#639922" stroke-width="0.5"/>
  <text x="212" y="67" text-anchor="middle" style="font-size:10px;font-weight:600;fill:#173404">GELU</text>
  <text x="212" y="81" text-anchor="middle" style="font-size:8.5px;fill:#3d6614">element-wise</text>
  <line x1="244" y1="69" x2="258" y2="69" stroke="#185FA5" stroke-width="1.2" marker-end="url(#m-blue)"/>
  <rect x="260" y="50" width="88" height="38" rx="8" fill="#E6F1FB" stroke="#185FA5" stroke-width="0.5"/>
  <text x="304" y="67" text-anchor="middle" style="font-size:10px;font-weight:600;fill:#0C447C">Linear</text>
  <text x="304" y="81" text-anchor="middle" style="font-size:9px;fill:#185FA5">3072 → 768</text>
  <line x1="348" y1="69" x2="362" y2="69" stroke="#D85A30" stroke-width="1.5" marker-end="url(#m-red)"/>
  <rect x="364" y="51" width="42" height="36" rx="8" fill="#D85A30" stroke="#993C1D" stroke-width="0.5"/>
  <text x="385" y="75" text-anchor="middle" style="font-size:18px;font-weight:300;fill:#fff">+</text>
  <path d="M33 92 L33 136 Q33 142 39 142 L381 142 Q387 142 387 136 L387 89"
        fill="none" stroke="#D85A30" stroke-width="1.2" stroke-dasharray="4 3"
        marker-end="url(#m-red)"/>
  <text x="210" y="157" text-anchor="middle" style="font-size:9.5px;fill:#993C1D">
    residual skip
  </text>
  <line x1="406" y1="69" x2="420" y2="69" stroke="#D85A30" stroke-width="1.5" marker-end="url(#m-red)"/>
  <rect x="422" y="50" width="52" height="38" rx="8" fill="#F6D7C8" stroke="#D85A30" stroke-width="0.5"/>
  <text x="448" y="67" text-anchor="middle" style="font-size:12px;font-weight:700;fill:#993C1D">LN</text>
  <text x="448" y="81" text-anchor="middle" style="font-size:8px;fill:#993C1D">LayerNorm</text>
  <line x1="474" y1="69" x2="488" y2="69" stroke="#D85A30" stroke-width="1.5" marker-end="url(#m-red)"/>
  <rect x="490" y="50" width="132" height="38" rx="8" fill="#FAECE7" stroke="#D85A30" stroke-width="0.5"/>
  <text x="556" y="67" text-anchor="middle" style="font-size:11px;font-weight:500;fill:#4A1B0C">h after ffn</text>
  <text x="556" y="81" text-anchor="middle" style="font-size:9px;fill:#993C1D">[1, seq_len, 768]</text>
</svg>
