<svg width="100%" viewBox="0 0 640 145" role="img" xmlns="http://www.w3.org/2000/svg" style="margin:1rem 0">
  <title>Position embedding lookup</title>
  <defs><marker id="bmo" viewBox="0 0 10 10" refX="8" refY="5" markerWidth="6" markerHeight="6" orient="auto-start-reverse"><path d="M2 1L8 5L2 9" fill="none" stroke="#BA7517" stroke-width="1.5" stroke-linecap="round" stroke-linejoin="round"/></marker></defs>
  <defs><marker id="bmb" viewBox="0 0 10 10" refX="8" refY="5" markerWidth="6" markerHeight="6" orient="auto-start-reverse"><path d="M2 1L8 5L2 9" fill="none" stroke="#185FA5" stroke-width="1.5" stroke-linecap="round" stroke-linejoin="round"/></marker></defs>
  <rect x="20" y="20" width="110" height="100" rx="8" fill="#E6F1FB" stroke="#185FA5" stroke-width="0.5"/>
  <text x="75" y="48" text-anchor="middle" style="font-size:12px;font-weight:500;fill:#0C447C">wpe</text>
  <text x="75" y="63" text-anchor="middle" style="font-size:10px;fill:#185FA5">512 × 768</text>
  <rect x="30" y="74" width="90" height="7" rx="2" fill="#B5D4F4" opacity="0.5"/>
  <rect x="30" y="83" width="90" height="7" rx="2" fill="#B5D4F4" opacity="0.6"/>
  <rect x="30" y="92" width="90" height="7" rx="2" fill="#B5D4F4" opacity="0.7"/>
  <rect x="30" y="101" width="90" height="7" rx="2" fill="#B5D4F4" opacity="0.8"/>
  <text x="75" y="130" text-anchor="middle" style="font-size:10px;fill:#185FA5">one row per position</text>
  <line x1="132" y1="70" x2="190" y2="70" stroke="#185FA5" stroke-width="1.5" marker-end="url(#bmb)"/>
  <rect x="192" y="50" width="70" height="44" rx="8" fill="#BA7517" stroke="#854F0B" stroke-width="0.5"/>
  <text x="227" y="76" text-anchor="middle" style="font-size:12px;font-weight:500;fill:#fff">Gather</text>
  <rect x="197" y="5" width="60" height="20" rx="4" fill="#FAEEDA" stroke="#854F0B" stroke-width="0.5"/>
  <text x="227" y="19" text-anchor="middle" style="font-size:10px;fill:#854F0B">[0,1,2,...]</text>
  <line x1="227" y1="25" x2="227" y2="50" stroke="#BA7517" stroke-width="1" marker-end="url(#bmo)"/>
  <line x1="264" y1="70" x2="320" y2="70" stroke="#BA7517" stroke-width="1.5" marker-end="url(#bmo)"/>
  <rect x="322" y="28" width="280" height="84" rx="8" fill="#FAEEDA" stroke="#BA7517" stroke-width="0.5"/>
  <text x="462" y="52" text-anchor="middle" style="font-size:11px;font-weight:500;fill:#633806">position embeddings</text>
  <text x="462" y="67" text-anchor="middle" style="font-size:10px;fill:#854F0B">float32 [1, seq_len, 768]</text>
  <rect x="332" y="76" width="260" height="6" rx="2" fill="#FAC775" opacity="0.5"/>
  <rect x="332" y="84" width="260" height="6" rx="2" fill="#FAC775" opacity="0.58"/>
  <rect x="332" y="92" width="260" height="6" rx="2" fill="#FAC775" opacity="0.66"/>
  <rect x="332" y="100" width="260" height="6" rx="2" fill="#FAC775" opacity="0.74"/>
  <text x="462" y="125" text-anchor="middle" style="font-size:10px;fill:#854F0B">encodes token order</text>
</svg>
